<svg xmlns="http://www.w3.org/2000/svg" version="1.2" baseProfile="tiny" viewBox="0 0 1428 270">
  <path d="M58.7 20c6 .1 11.8 1.5 17.1 4.4 2.8 1.5 5.1 3.6 6.3 6.6.6 1.5 1.1 3.1 1 4.8-.3 5.9-.4 11.8-.5 17.7 0 1.1.5 2 .9 2.9.8 1.8 1.1 3.6 1 5.6-.2 7.8 0 15.6-.2 23.4-.2 8.5.1 17-.2 25.5-.2 4.2 0 8.4-.1 12.6-.1 4-2.1 7.1-5.3 9.3-3.9 2.8-8.2 4.4-13 4.8-.5 0-1.4-.1-1.5.6-.1.7.8.9 1.3 1 2.2.5 4 1.7 5.5 3.4 1.1 1.3 1.6 2.8 1.5 4.4 0 .6-.1 1.2-.1 1.9-.1 1.9.4 3.4 1.9 4.7 2.2 1.8 3 4.3 2.9 7.2-.2 3.9-.1 7.8-.2 11.7 0 .6 0 1.2-.3 1.7s-.1 1 0 1.5c.6 2.9.3 5.8.1 8.6-.2 2.5-1.8 4.3-3.8 5.7-.8.6-1.2 1.3-1 2.3.3 2.3.3 4.6-1.5 6.4-1.9 1.9-4.2 2.9-6.7 3.4-3.3.6-6.6.8-9.9.1-2.6-.5-5.2-1.4-7.3-3.3-1.7-1.5-2.5-3.5-2.2-5.7.3-2-.2-3.5-1.9-4.8-1.9-1.5-2.7-3.7-2.7-6.2.1-2.6.1-5.1.2-7.7.2-3-.1-6-.1-9 0-2.1.1-4.2 0-6.3-.1-2.5 1.1-4.6 3-6.1 1.2-1 1.6-2 1.5-3.5-.2-2.2-.3-4.4 1.1-6.3 1.3-1.8 2.9-3.2 5-3.8.7-.2 1.5-.5 2.2-.8.3-.1.7-.2.6-.6-.1-.4-.5-.4-.7-.4-1.6 0-3.1-.4-4.6-.8-3.7-1-7.1-2.6-10-5.1-3.1-2.6-4.7-5.8-4.6-9.9.2-15.9.3-31.8.4-47.7 0-4.6.3-9.2.2-13.8 0-1.7.3-3.3 1.1-4.9.5-.9.6-1.8.6-2.8 0-5.9.1-11.9.1-17.8.1-4.8 2.6-7.9 6.4-10.3 3.9-2.6 12.3-4.8 16.5-4.6zm18.5 66.9c.1-4.6.1-9.2.1-13.8 0-.4 0-1 .6-1 .7 0 .6.6.6 1 0 4.4-.1 8.8-.1 13.2-.1 8-.2 16.1-.2 24.1v15.2c0 1.3-.8 2.2-2.1 2.4-.7.1-1.3.3-2 .7-1.4.8-2.8 1.5-4.2 2.3-1.3.8-2.7 1.2-3.8 2.3-1.4 1.4-3.2 1.7-5 .8-.5-.2-.9-.5-1.4-.5-2.8-.2-5.4-1-8.2-1.3-1.6-.2-3.1-.8-4.8-.4-1.3.3-2.7-.8-2.8-1.9-.3-3.2-1.8-5.9-3.8-8.4-.3-.4-.5-.8-.5-1.3 0-5-.2-9.9 0-14.9.3-6.8.3-13.6.3-20.4 0-3.6.2-7.1 0-10.7 0-.4 0-1.1.6-1.1.7 0 .5.7.5 1.1 0 1.2-.1 2.4-.1 3.6-.1 4.2 0 8.4-.2 12.5-.1 1.6 0 3.3 0 4.9 0 .5.1 1.1.8 1.1.6 0 .8-.5.9-1V76.2c0-.4 0-1 .6-1s.6.6.6 1v.5c-.1 5.9-.2 11.7-.2 17.6 0 1.2.3 1.4 1.4.8 1.9-1.1 3.9-2.2 5.8-3.3.7-.4 1-1.1 1-2V78.2c0-.8-.3-1.4-1-1.7-1.4-.6-2.6-1.4-3.8-2.3-1.5-1-3.5-1.6-3.9-3.7 0-.2-.3-.4-.5-.5-2.2-1.6-4.2-3.2-6.1-5.1-.2-.2-.4-.4-.7-.2-.3.1-.3.4-.3.7 0 .5.1 1 .1 1.5-.1 13.2 0 26.4-.4 39.6-.1 4.8.2 9.7 0 14.5-.2 4.2 1.6 7.4 4.9 9.8 5.2 3.9 11.3 5.4 17.6 5.8 6.4.4 12.7-.9 18.4-4 4.2-2.3 6.7-5.6 6.8-10.5.3-10.6 0-21.1.2-31.7.2-8 .1-16.1.3-24.1 0-.3.1-.8-.3-.9-.4-.1-.7.1-.9.4-1.6 2.2-3.9 3.6-6.2 4.8-.4.2-.6.5-.6.9 0 .9-.6 1.3-1.3 1.7-.9.5-1.7 1-2.6 1.5-.7.4-.9.8-.9 1.6 0 4.9.1 9.8-.1 14.8 0 .8.2 1.4 1.1 1.4.8 0 1.2-.6 1.2-1.4 0-4.1.1-8.1.1-12.2 0-.5-.1-1.1 0-1.6 0-.4.1-.7.6-.7.4 0 .6.4.6.7 0 .7 0 1.5-.1 2.2-.1 4.3.1 8.7-.1 13-.1 1.2.1 2.5.4 3.6.5 1.5 1.2 2.9 1.9 4.4.2.4.4.9.9.8.6-.1.4-.7.4-1.1-.1-4.2-.1-8.8-.1-13.3zm-31.1 66.9v1.8c-.1 1.5-.1 3.1-1.2 4.3-.3.4-.7.8-1.2.5-.5-.4-.2-.9.1-1.2 1.1-1.2 1-2.6 1.1-4.1 0-.4.1-.9-.4-1.1-.5-.2-.8.2-1.1.5-2.7 3.1-2.8 6.2.3 9.2 2.4 2.3 5.2 3.6 8.5 4.2 3.9.7 7.7 1.4 11.7.6 3.3-.7 6.4-1.8 9.1-3.8 3.5-2.7 3.9-6.2 1.1-9.7-.3-.3-.5-.8-1-.6-.6.2-.5.7-.5 1.2 0 1.5.1 2.9 1.1 4.1.3.4.6.9 0 1.2-.5.4-.9-.1-1.2-.5-.8-1.1-1.3-2.3-1.3-3.7 0-1.7.3-3.3.1-5 0-.4 0-.8-.4-1-.4-.2-.7.1-1 .4-.7.6-1.4 1.1-2.2 1.5-2.7 1.2-5.5 1.8-8.4 1.8-2.8 0-5.5-.5-8.1-1.4-1.6-.6-3-1.4-4.3-2.5-.2-.2-.5-.5-.8-.3-.3.2-.2.6-.2.9 0 .7.1 1.7.2 2.7zm10-52.4h.1v-5.7c0-1.4-.5-2.1-1.7-2.2-1.2 0-2 .9-2 2.2v11c0 .2-.2.4-.5.5-.3 0-.6-.1-.6-.4-.1-.3-.1-.6-.1-.9v-8.8c0-1.2-.2-1.3-1.2-.7l-6.9 3.9c-.7.4-.7.9-.3 1.5.9 1.8 1.9 3.6 2.2 5.6.1.9 1.2 1.6 2 1.3 1-.4 1.9-.1 2.9.1.9.2 1.8.3 2.6.5 3.1.6 6.3.7 9.3 1.9 1.1.4 2.1.2 3.2-.6 1.7-1.4 3.7-2.5 5.7-3.5.6-.3 1.6-.5 1.5-1.4-.2-2.7.1-5.5.1-8.2 0-.7-.4-1.1-1.1-1.1-.7-.1-1.2.2-1.3 1v8.2c0 .4.1 1-.5 1-.5 0-.7-.5-.7-.9v-7.6c0-1-.3-1.4-1.3-1.6-2.9-.5-5.8-1-8.7-1.6-.9-.2-1.4 0-1.4 1.1.1 3.9-.3 7.7-.1 11.6 0 .5 0 1-.7 1-.5 0-.6-.5-.6-1 .1-2.2.1-4.2.1-6.2zm4.6 22.4h.1v-7.5c0-1.4-.2-1.8-1.7-2-1.3-.2-2.7-.3-3.9-1-.8-.5-1.7-.2-2.4.5-.9 1-2 1.7-3.2 2.2-.8.4-1.1.9-1.1 1.8v11.5c0 1 .3 1.4 1.3 1.7 3.1.8 6.3.9 9.3 1.7 1.1.3 1.5-.2 1.5-1.3.1-2.5.1-5.1.1-7.6zM81.5 48c0-2.5-.1-4.9.1-7.4 0-.4.1-.8-.4-1-.4-.1-.6.2-.8.5-.6.9-1.4 1.7-2.3 2.3-.9.6-1.2 1.3-1.1 2.4v8.1c0 .5.1 1.1-.6 1.1-.6 0-.5-.6-.5-1.1 0-2.5.1-5.1.1-7.6 0-.8-.2-1.3-1.1-.8-2.4 1.2-4.9 2-7.5 2.5-.8.1-1.1.6-1.1 1.4 0 .9 0 1.9-.1 2.8-.1 1 .3 1.7 1.2 2.2 2.1 1.2 4.4 2.3 6.6 3.2.9.4 1.3.9 1.4 2 .1 2-.1 4-.1 6 0 1.1.6 1.4 1.4.8 1.5-1.2 3-2.5 3.9-4.3.9-1.8 1.5-3.6 1.2-5.7-.6-2.5-.3-5-.3-7.4zm-21.8 8.5h.1v5.6c0 .5.1 1.1-.6 1-.6 0-.5-.5-.5-1 0-1.8 0-3.5.1-5.3 0-2 .1-4 .1-6 0-1-.5-1-1.2-.7-.4.2-.7.5-1 .7-1.5 1.2-3.1 2.2-4.8 3.1-1.1.6-2 1.2-1.7 2.7.1.4-.1.8-.5.9-.5.1-.6-.3-.7-.7-.1-1-.7-1-1.4-.8-.4.1-.7.3-1.1.4-.4.2-1 .2-1.1.8-.1.6.5.7.9 1 3.5 2.4 7.2 4.4 11 6.4 1.4.7 2.4.8 3.7.1 1.5-.8 3-1.5 4.5-2.2 2.4-1.2 4.6-2.6 6.8-4.1.9-.6.8-1.1-.1-1.6-1.3-.7-2.7-1.3-4-2-2.1-1-2.1-1-2.2 1.3 0 .4.1.9-.5.9s-.4-.6-.4-1v-.2c.2-2.3-.3-3.1-2.4-4.1-.7-.3-1-.1-1 .7 0 .8 0 1.6.1 2.3 0 .5.1 1.2-.6 1.1-.6 0-.4-.7-.4-1.1v-3.9c0-.4-.2-.9-.6-.8-.6 0-.4.6-.4.9-.1 1.9-.1 3.7-.1 5.6zm-.9-35.1c-4.2.3-8.4.8-12.3 2.6-3.1 1.4-5.7 3.3-7.2 6.5-.9 1.9.1 6 1.7 7.3.2.2.5.4.8.3.2-.1.3-.4.3-.6-.3-1.6.2-3.1-.1-4.7-.2-1.4.1-2.1 1.4-2.5 1.9-.5 3.5-1.5 5.1-2.5 1.7-1 3.5-1.8 5-3.1 1-1 2.4-.9 3.6-.3.5.3 1.1.5 1.6.6 2.8.5 5.7 1 8.5 1.5 1 .2 2 .4 3.1.1 1.2-.3 2.6.7 2.7 1.8.2 2.8 1.7 4.9 3.2 7.2.4.7.8 1.3.8 2.1 0 .3-.1.6.2.7.3.1.6-.1.7-.3 1.3-1.7 2.4-3.5 2-5.8-.7-3.5-3.1-5.7-6.1-7.3-4.7-2.5-9.7-3.4-15-3.6zm-.7 12.7h-.2v6.7c0 1 .4 1.5 1.4 1.7 1.2.2 2.4.4 3.4 1.1.7.4 1.4.1 1.9-.4.8-.8 1.7-1.5 2.6-1.9.8-.4 1-.9 1-1.8 0-3.4 0-6.8.1-10.2 0-1-.4-1.5-1.3-1.6-2.5-.4-5-.9-7.5-1.5-1-.2-1.4.2-1.4 1.2v6.7zM45.5 50.3h.1c0-1.2-.1-2.4 0-3.5.2-1.3-.3-2-1.4-2.6-.4-.2-.7-.4-1.1-.2-.4.2-.3.6-.3 1 0 2.5-.1 4.9-.1 7.4 0 .3 0 .8-.5.8s-.5-.5-.4-.8c.2-2.8-.2-5.6.1-8.4.1-.7-.2-1.2-.7-1.6-1.1-.8-2.1-1.8-3-2.8-.2-.2-.4-.6-.7-.4-.4.2-.3.6-.3.9.1 5.3.3 10.6-.1 15.9 0 .6 0 1.2.1 1.7.5 3.2 2.6 5.2 4.9 7.2.3.2.6.4 1 .2s.3-.6.3-.9c-.2-2.1 0-4.1 0-6.2 0-.9.3-1.6 1.3-1.8 1-.2 1.2-.8 1.2-1.7-.3-1.5-.3-2.8-.4-4.2zm23.4 34.3c.1-2.3.1-4.5.1-6.8 0-1.2-.3-1.3-1.3-.8-1.8 1-3.5 2.1-5.4 3-1.1.5-2 1.7-3.5 1.4-1-.2-1.4.1-1.3 1.1.1 2.1.1 4.2.1 6.3 0 1.8.1 2.1 1.9 2.4 2.7.5 5.4.8 8.1 1.3 1.1.2 1.4-.2 1.4-1.2-.2-2.2-.1-4.5-.1-6.7zm-6.3 90.6c0-.7-.1-1.4 0-2.1.2-1.4-.4-2-1.7-2.3-.3-.1-.7-.2-1-.3-3.5-.8-7-1.1-10.5-1.6-.5-.1-1-.1-1.5 0-1.7.2-2.2.8-2.2 2.5 0 1.1 0 2.3-.1 3.4-.2 1.8.3 2.4 2.1 2.6 2.1.2 4.1.4 6.2.7.9.1 1.3-.3 1.3-1.1 0-.5-.1-1 0-1.5 0-.4 0-.9.6-.8.5 0 .5.5.5.9 0 .3-.1.7-.1 1-.1 1.5.2 2 1.8 2.1 1.2.1 2.3.2 3.5.4 1 .2 1.3-.2 1.3-1.1-.2-1-.2-1.9-.2-2.8zm3.6-51.4h-.1v6.7c0 1 .5 1.3 1.2.8 1.1-.8 2.3-1.3 3.4-2 1.7-.9 3.1-2.2 5.1-2.4.8-.1.9-.9.3-1.6-1.8-2.4-3.1-5-3.7-7.9-.2-1-.7-1.5-1.7-1.4-1 .1-2 0-3-.2-1.3-.2-1.6.1-1.6 1.4.1 2.2.1 4.4.1 6.6zM64 175s-.1 0 0 0c-.1.9-.1 1.7-.1 2.6 0 .5.1 1 .7 1 .7 0 1-.4 1-1 0-.5-.1-.9-.1-1.4 0-.4.1-.7.6-.8.5 0 .6.3.6.7.3 1.4.4 1.5 1.7.8 2-.9 4-2 6-2.8 1-.4 1.4-1 1.4-2 0-1.7 0-3.4-.1-5.1 0-1.1-.5-1.4-1.5-1-2.7.9-5.3 2.1-7.8 3.4-1.8.9-3 2.1-2.6 4.3.3.4.2.8.2 1.3zM58.8 68c0-1.2-.2-1.5-1.5-2.2-4-2.2-8-4.4-11.8-6.9-.9-.6-1.5-.3-1.4.8.2 1.8.1 3.6 0 5.5 0 .6.2 1 .8 1.3 1.4.8 2.9 1.3 4.4 1.8 2.4.9 5 .9 7.4 1.5 1.5.2 2.2-.3 2.1-1.8zm2.8 1.7c1.7-.2 3.6-.4 5.5-.8 2-.4 3.9-1 5.8-1.8.9-.3 1.3-.9 1.2-1.9-.1-1.7-.2-3.5 0-5.2 0-.4.1-.7-.3-.9-.4-.2-.7 0-1 .3-2.1 1.7-4.4 3-6.8 4.2-1.8.9-3.7 1.7-5.5 2.6-.9.5-1.2 1.6-.9 2.8.3.9 1.1.7 2 .7zm-9.3-35.4c.1 0 .1 0 0 0 .1-1.9.1-3.7.1-5.6 0-1.3-.2-1.5-1.4-.9-2.5 1.2-4.8 2.8-7.4 3.8-.2.1-.4.3-.4.5 0 .3.2.6.4.6.7.1.9.6 1.1 1.2.4 1.1 1 2.2 1.2 3.4.6 2.8 2.3 3.8 5 3.8 1 0 1.4-.2 1.3-1.2.1-1.9.1-3.8.1-5.6zM66.6 186s-.1 0 0 0c-.1 1.2-.1 2.4 0 3.6 0 .7.1 1.4 1.1 1.4.9 0 .8-.8.8-1.4 0-2.2 0-4.4.1-6.7 0-.5 0-1.1.6-1 .7 0 .5.7.5 1.1 0 1.9-.1 3.9-.1 5.8 0 1.1.6 1.5 1.5 1 1.5-1 3-2.1 4-3.8 1.4-2.5.9-5.2 1-7.9 0-.8-.6-.7-1.2-.5-2.3 1.1-4.7 2.1-7 3.2-.8.3-1.1.9-1.1 1.8-.2 1.1-.2 2.3-.2 3.4zm-7.2-34.5c1.1.2 2.7-.4 4.4-.8 1.9-.4 3.7-1.4 4.8-2.9 1.8-2.5 1.9-3.5-.3-5.6-2-1.8-4.5-2.6-7-3.1-.5-.1-1-.3-1.1.4-.1.7.3.9.9 1 1.3.1 2.4.6 3.6 1 3.2 1.2 4.1 4.7 1.5 6.7-2.1 1.6-4.5 2.2-7.1 2.3-.9 0-1.7-.5-2.6-.5-2 0-3.7-1-5.2-2.2-1.4-1.1-1.7-2.8-.8-4.3.5-.9 1.3-1.6 2.3-2 1.3-.6 2.7-1 4.2-1 .5 0 1-.2.9-.8 0-.5-.4-.7-.8-.6-3.4.5-6.6 1.3-8.8 4.2-.8 1.1-.8 2.2-.2 3.3.5 1 1.3 1.8 2.2 2.4 2.5 1.5 5.4 2.3 9.1 2.5zM77 116.2c.1-2.2.1-4.4.1-6.5 0-1-.5-1.3-1.4-1.2-.5.1-1 .3-1.4.5-.9.5-1.8 1-2.6 1.5l-4.8 2.7c-.3.2-.6.5-.5.8 0 .4.4.7.8.8.5.1.9.2 1.4.2.7 0 1.5-.1 2.2-.1 2 0 3 .9 3.1 2.9 0 .5.2 1 .4 1.4.5 1.2 1 2.4 1.5 3.5.2.4.2 1 .8.9.7-.1.4-.7.4-1.2v-6.2zm-15.3 7.9s-.1 0 0 0c-.1 2.5 0 5.1-.1 7.6 0 1.3.4 2 1.6 2.1 1.1 0 2.1-1 2-2.1-.2-5-.3-10 0-15.1.1-1.2-.4-1.5-2.2-1.5-1 0-1.3.4-1.3 1.4v7.6zm-1.1 73c.1-.4 0-.8.1-1.2.1-2.1 0-2.2-2.1-2.2-2 0-4.1.1-6-.7-.8-.3-1.2 0-1.2.9 0 1 0 1.9-.1 2.9-.1 1.4.2 1.8 1.6 2 1.8.3 3.7.7 5.5.9 2.2.3 2.2.9 2.2-1.9v-.7zM57 33.7v-6.9c0-.9-.3-1.5-1.3-1.6-1.1-.1-2.2 1-2.1 2.2.3 3.7.2 7.3 0 11 0 .7-.1 1.4 0 2.1.1 1 1.3 1.5 2.5 1.4 1-.1.9-.9.9-1.6-.2-2.2-.3-4.4 0-6.6zm-8.6 152.2h.1v4.2c0 .7.5 1 1.1.9.6-.1.9-.4.8-1-.4-2.1.1-4.1-.1-6.2 0-.4-.1-.9.4-.9.6-.1.6.4.6.9v4.2c0 .7-.4 1.8.3 2.2.7.4 1.4-.5 2-.9.7-.4 1.4-.8 1.4-1.8v-4.8c0-.5-.2-1-.7-1.1-1.6-.3-3.3-.5-5-.7-.7-.1-1.1.3-1.1 1.1.2 1.3.2 2.6.2 3.9zm-7.6-77.6c-.3 3.1-.3 6.2-.2 9.3 0 .6.1 1 .7 1.2 1.3.4 2.8-.6 2.8-2 0-1.5.1-3 0-4.4 0-1.3.1-2.6-.2-3.8-.5-1.5-1.3-3-1.7-4.6-.1-.5-.4-.9-1-.7-.6.1-.5.6-.4 1.1.1 1.2.1 2.6 0 3.9zm22 77.6h-.1v-2.3c0-.6-.3-1.1-.9-1.1-1.4-.1-2.9-.3-4.3-.6-.8-.2-1.4.2-1.4 1.1v4.3c0 .2.1.5.3.7.3.4 3.3 1.2 3.8 1 .9-.4.4-1.3.5-2v-.2c.1-.3.1-.7.5-.7s.6.3.7.7v1.6c0 .3 0 .7.5.7.4 0 .5-.3.5-.7-.1-.8-.1-1.7-.1-2.5zM59.6 77.1v1.6c0 .8.4 1.1 1.1.7.6-.3 1.2-.7 1.8-1 3.2-1.7 6.5-3.4 9.7-5.1.4-.2.9-.4.7-.9-.2-.5-.8-.2-1.1 0-3.4 1.3-7 1.8-10.6 1.9-1.4 0-1.7.3-1.7 1.7.1.4.1.7.1 1.1zm-6.9 7c-.1 1.6-.1 3.1-.1 4.7 0 .9.4 1.4 1.4 1.3.3 0 .6-.1.8 0 1 .2 1.4-.4 1.4-1.2.1-2.5.1-5.1.1-7.6 0-.6-.2-1.1-.7-1.4-.5-.3-1-.7-1.5-1-.8-.5-1.3-.2-1.4.7v4.5zm-7.1-12c0 .3.2.4.4.5 1.3.8 2.6 1.7 4 2.5 2.5 1.4 4.9 2.9 7.4 4.3 1.1.6 1.3.4 1.3-.8 0-.8 0-1.6.1-2.3.1-1.5-.4-2-1.9-2-3.5-.1-7-.7-10.2-2.1-.4-.2-.8-.4-1.1-.1zm11.5 73c.1 0 .1 0 0 0v2.3c0 .7.4 1.1 1.1 1.3 2 .5 3.7 0 5.3-1.2.7-.6.7-4.1 0-4.7-.1 0-.1-.1-.2-.1-1.1-.3-2.2-.8-3.2-.3-.8.3-.4 1.4-.5 2.2v.2c0 .6-.2.9-.8.9-.6 0-.8-.3-.8-.9v-1.9c0-.4.1-.9-.4-.9s-.5.6-.5.9c-.1.7 0 1.4 0 2.2zm-9.4-20.9v-5.5c0-1-.5-1.3-1.3-.8-1 .5-1.8 1.2-1.5 2.6.1.4.1.9 0 1.4-.4 2.6-.2 5.1.3 7.7.2.8.5 1.4 1.4 1.4 1 0 1-.9.9-1.6 0-1.7 0-3.4.2-5.2zM50.1 50c.1.3.1.7.1 1v1c0 1.2.5 1.5 1.5.9.9-.5 1.8-1 2.7-1.6 1.2-.9 2.5-1.8 3.7-2.7.3-.2.5-.5.4-.9-.1-.3-.4-.3-.7-.3-2.1.2-4.2-.3-6.2-.8-1.1-.3-1.4.1-1.4 1.2-.1.8-.1 1.5-.1 2.2zm12.3 23c3.6-.1 7.1-1.1 10.5-2.2.4-.1.8-.4 1-.8.4-.6.4-1.2 0-1.7-.4-.6-.9-.2-1.4 0-2.3 1-4.7 1.7-7.2 2-1.5.2-3 .2-4.5.3-.7.1-1.3.4-1.2 1.3 0 .7.5 1 1.2 1 .5.2 1.1.1 1.6.1zm-5.1.1c.6-.1 1.5-.1 1.5-1.1s-.7-1.3-1.6-1.3c-4 0-7.9-1-11.6-2.6-.5-.2-1.1-.5-1.4.2-.3.7-.2 1.3.5 1.7.9.6 1.9.8 2.8 1.1 3.2 1.3 6.4 1.7 9.8 2zM44.7 183.8c-.1 0-.1 0 0 0-.1-1.2.2-2.6-.1-3.7-.4-1.4-1.4-2.6-2.1-3.9-.2-.3-.4-.8-.9-.6-.5.2-.4.6-.4 1 .2 1.9.1 3.7.1 5.6.1 1.9.9 3.5 2 5 .2.3.6.6 1 .5.5-.2.4-.6.4-1v-2.9zm17.1 13.3c0 .4-.1 1-.1 1.7 0 .9.4 1.2 1.2.7 1.5-.9 3-1.8 4.5-2.8.3-.2.7-.5.5-.9-.4-.9-.8-1.9-1.5-2.6-.6-.6-1.2.1-1.8.2-2.8.6-2.8.6-2.8 3.7zm-2.4-43.8c3.7-.3 7.4-1.3 10.5-3.9.7-.6 1.2-1.2 1.2-2.2 0-.3.1-.6-.3-.7-.4-.1-.5.2-.6.4-.2.5-.5 1-.9 1.5-2.2 2.4-5.1 3.2-8.2 3.6-2.7.4-5.4 0-8-.8-2.9-.9-5.7-2.3-6.5-5.7-.1-.3-.2-.6-.5-.5-.3.1-.3.4-.3.7.1 1.7 1 3 2.3 4 3.3 2.6 7.2 3.2 11.3 3.6zm-18 13.9c-.8 2.5.8 4.5 2.1 6.7.2.3.5.7.9.5.3-.1.4-.5.4-.8 0-2.8.1-5.5-1.5-8-.2-.4-.4-.8-.7-1.2-.2-.4-.6-.7-1.1-.5-.5.2-.4.6-.4 1 .2.7.3 1.4.3 2.3zM71.6 33.4V29c0-.6-.1-1.1-.9-1.1-.7 0-1.2.3-1.3 1v.9c0 2.8-.1 5.6-.1 8.4 0 .4-.2.9.3 1.2.5.3 1 0 1.4-.3.5-.3.6-.9.6-1.4v-4.3zm11.8 27.1c0-.8-.1-1.2-.4-1.3-.6-.1-.7.4-.8.8-1.2 2.6-2.9 4.7-5.3 6.2-.5.3-.9.6-1.3 1-.6.5-.8 1.2-.4 1.8.5.7 1.1.3 1.6 0 2.3-1.3 4-3.1 5.4-5.4.6-.9 1-2 1.2-3.1zm-40 7.7c0-.8-.4-1.3-1-1.7-2.8-1.9-5.3-4-6-7.5-.1-.3-.2-.5-.6-.5-.4 0-.5.4-.5.7v.5c-.1 3.7 4 7.8 7 9.3.6.2 1-.2 1.1-.8zm5.7-17.9c0-1.1 0-2.3-.1-3.4-.1-1-.8-1.3-1.7-1.2-.8.1-.7.7-.7 1.3.1 2.3 0 4.5-.2 6.7 0 .4-.2.8.2 1.1.4.3.9.2 1.3 0 .8-.4 1.3-.9 1.2-1.9v-2.6zm6.9 95.2c0-.7.1-1.5 0-2.2 0-.8-.4-.9-1.1-.6-.8.4-1.6.9-2.5 1.1-.4.1-.4.4-.5.7-.4 1.5 1.5 4 3 4 .7 0 1-.3 1.1-1v-2zm-6-35.6c-.6-.1-1.1-.1-1.2.6-.1.7.4.9.9.9.4.1.9.1 1.3.2 2.8.8 5.7.7 8.5 1.6h.3c.4 0 .7-.1.9-.5.2-.4-.1-.8-.4-1-.4-.4-.9-.4-1.4-.4-1.1 0-2.2-.2-3.3-.5-1.9-.4-3.8-.6-5.6-.9zm8 82.6h1.3c.7 0 1.3-.1 1.4-1 0-.9-.4-1.3-1.2-1.4-1-.1-1.9-.2-2.9-.5-.6-.2-1.1 0-1.6.3s-1.1.6-1.6.9c-.3.1-.6.2-.6.6 0 .4.4.6.8.6 1.5.1 2.9.6 4.4.5zm9.7-97.2c.7.1 1.1 0 1.2-.5.1-.5 0-.9-.5-1-.5-.1-1.1-.2-1.6-.3-2.8-.5-5.6-.9-8.4-1.3-.4-.1-.9-.3-1 .3-.1.6.1 1 .9 1.1 1.1.1 2.1.4 3.2.6 2.1.4 4.4.4 6.2 1.1zm-.5-51.4c.4-.1.9-.2 1.4-.4 1.5-.6 3.1-1.2 4.6-1.8.9-.4 1.7-.8 2.3-1.5.3-.3.9-.7.5-1.3-.4-.5-.9-.4-1.4-.1l-7.5 3.9c-.2.1-.4.3-.5.4-.2.2-.3.4-.2.6.1.2.4.2.8.2zM59.3 45c.3-.1 1 .3 1.1-.4.1-.8-.7-.7-1.1-.9-2.5-.7-5.1-.8-7.6-1.4-.5-.1-1.2-.4-1.4.3-.2.8.4 1.2 1.1 1.2 2.6.3 5.1 1.1 7.9 1.2zM45.7 193.1c0 2.2.7 3.7 2.4 5.2.4.4 1 1 1.5.6.6-.5-.1-1-.3-1.5-.7-1.6-1.9-2.9-1.9-4.8 0-.5-.2-1.4-1-1.3-.8.1-.6.9-.7 1.4v.4zm-3.4-93.8c.2-.1.6-.1.9-.3 2.6-1.5 5.1-2.9 7.7-4.4.5-.3.9-.7.6-1.2-.3-.5-.8-.1-1.2.1-2.8 1.5-5.4 3.4-8.4 4.5-.4.1-.6.4-.5.8 0 .4.4.4.9.5zm23.4 86.8c-.1 0-.1 0 0 0v-3c0-.4 0-.8-.5-.9-.5-.1-.8.3-1 .6-.2.3-.2.6-.2.9 0 1.2-.1 2.3-.1 3.5 0 .6-.1 1.2 0 1.7 0 .7.5 1.1 1.2 1 .7 0 .7-.6.7-1.1-.2-.9-.1-1.8-.1-2.7zm-18.5-.9v-3.7c0-.4-.1-.8-.6-.8-.4 0-.8.2-.8.7-.1.3 0 .6 0 .9 0 1.9.1 3.9-.1 5.8 0 .3 0 .6.1.9.2.4.5.7 1 .6.5-.1.5-.5.5-.9-.1-1.2-.1-2.4-.1-3.5zM42.9 37c-.3 1.5-.2 2.9 1.4 3.8.4.2.8.5 1.2.2.4-.3.4-.8.3-1.2-.6-1.6-1.3-3.2-2-4.9-.1-.2-.2-.4-.5-.4-.3.1-.3.3-.3.6-.2.6-.1 1.2-.1 1.9zm2.1 77.6v1c0 .4-.2.9.3 1.2.5.3.9 0 1.3-.2 1.2-.6 1.3-1.7 1.2-2.9-.1-1.2-.4-1.5-1.6-1.5-1.1 0-1.3.6-1.2 1.5v.9zm8.4 65.8c.7 0 1.2.1 1.4-.4.1-.4-.2-.6-.6-.7-2.7-.6-5.4-.6-8.1-1.2-.2-.1-.5 0-.6.3-.1.2 0 .5.1.6.3.3.6.5 1 .5 2.4.3 4.8.3 6.8.9zm10-133c-.5.1-1.2 0-1.6.7-.3.6-.1 1.1.2 1.5.5.7 1.2 1.2 2 1.6.7.4 1.2 0 1.2-.9 0-.5-.1-1-.1-1.5-.1-1-.7-1.4-1.7-1.4zm-5.9 132.2c-.5 0-1-.1-1.1.5-.1.6.5.6.9.6l3.3.6c1.4.3 2.9.6 4.2-.6.2-.2.6-.3.5-.7-.2-.5-.6-.3-.9-.2-1.2.6-2.4.4-3.7.2-1-.2-2.2-.3-3.2-.4zm10 0c.1 0 .2 0 .3-.1 1.4-.8 3.1-1.1 4.4-2 .8-.6 1.9-.6 2.5-1.4.2-.2.4-.4.2-.7-.2-.3-.5-.2-.7-.1-2.3 1.1-4.7 2.3-7 3.4-.2.1-.4.3-.3.6.1.2.3.3.6.3zM80.9 33.1c-.3.3-.3.7-.2 1.1.1 1.3-.3 2.4-1.1 3.5-.7.9-1.5 1.7-2.3 2.5-.2.3-.5.6-.2.9.3.4.6 0 .9-.2 1-.9 2-1.9 2.8-3 1-1.3 1-3.5.1-4.8zm-43.7 1.4c0 2.8 2 4.5 3.7 6.3.2.2.4.2.6 0 .3-.2.1-.5-.1-.7-.3-.4-.6-.7-.9-1.1-1.1-1.4-2.4-2.6-2.6-4.6 0-.6.4-1.6-.4-1.6-.5 0-.1 1-.3 1.7zM69.1 194v1.2c0 .6.4 1.1.9 1.2.6.1.8-.5.9-1 .1-.9.2-1.8.2-2.7 0-.5-.1-1-.7-1s-1.2.2-1.3.9v1.4zm-10-147.3c.2 0 .9.1 1-.5.1-.8-.7-.6-1.1-.6-2.5.2-5-.5-7.4-.8-.4-.1-.9-.3-1 .2-.1.5.5.5.8.6 2.4.7 5 .8 7.7 1.1zm-15.2 75.7v-1.9c0-.4-.3-.7-.6-.7-.6 0-1.4-.1-1.8.5-.3.4-.3.8 0 1.2.3.4.6.7.9 1.1.5.5.5 1.9 1.3 1.6.6-.2.1-1.4.2-1.8zm23.7-76.7c2.6-.4 5.1-1.6 7.6-2.9.2-.1.4-.3.2-.6-.3-.4-.6-.2-.9-.1-2.3 1.1-4.6 2.4-7.3 2.6-.3 0-.6.2-.5.6.1.5.4.5.9.4zm5.2-10.2c-.1 0-.1 0 0 0v1.2c0 .4-.1.8.3 1 .5.2.8-.1 1.2-.3.6-.4.8-.9.4-1.6-.3-.5-.5-1.1-.7-1.7-.2-.3-.2-.9-.7-.8-.5.1-.4.6-.4 1-.2.4-.1.8-.1 1.2zm-.1 73.1c.9-.7 2.3-1 3.6-1.5.4-.1.6-.7.3-1.1-.2-.5-.7-.5-1.1-.3-1.2.6-2.3 1.3-3.5 1.9-.2.1-.4.4-.3.7.2.3.4.4 1 .3zm-10.6 91.9c.3.4.6.4.9.4 2.1-.5 4-1.4 5.9-2.5.3-.2.5-.5.2-.9s-.7-.3-1.1-.1c-1.8 1.3-3.7 2.5-5.9 3.1zm4.8-88.6c1.2-.7 2.6-1.3 3.8-2.2.3-.2.7-.5.4-.9-.3-.3-.7-.2-1.1 0-1 .5-1.9 1-2.9 1.6-.4.2-.7.5-.8.9-.2.4 0 .6.6.6zm-18.2 1.8c0 .5-.2 1.1.5 1.2.6.1 2.3-1.1 2.3-1.6 0-1-.8-.9-1.4-1-1.1-.2-1.5.3-1.4 1.4zm24.7-10.5v.9c0 .5-.1 1.1.7 1.1.7 0 1.1-.4 1.2-1.1 0-.3-.1-.7-.3-1-.3-.6-.4-1.6-1.3-1.4-.7.2-.3 1.1-.3 1.5zM54.8 92.6h.9c.3 0 .7.1.7-.3.1-.3 0-.6-.3-.8-.7-.4-1.5-.8-2.3-.3-.5.2-1.2.4-1 1.1.2.7.8.3 1.3.3h.7zm4.4 108.6c0-.1 0-.3.1-.4-2.5-.4-4.9-.8-7.4-1.2 0 .1 0 .3-.1.4 2.4.8 4.8 1.4 7.4 1.2zm4.2-87.1c.3 0 .6 0 .9-.2.4-.3.9-.6.7-1.2-.2-.5-.7-.3-1.1-.3-.4 0-.8.1-1.3.1-.4 0-.7.1-.8.5 0 .4.2.7.5.9.4.1.8.2 1.1.2zm7.7-18.8c.5-.1 1.2.1 1.2-.7 0-.7-.7-1-1.3-1.1-.6 0-1.1.2-1.1.9-.1 1 .6.9 1.2.9zm-20.6 98.8c-.1-.6.1-1.4-.8-1.4-.4 0-.9.2-.8.8.1.7.4 1.5 1.1 1.6.6.2.4-.6.5-1zm-3.8-82.8c.5 0 .9-.2.8-.8-.1-.6-.4-1-1.1-1-.5 0-.9.2-.9.8.1.8.6.9 1.2 1zm-1.3-68.4c0-.1-.1-.2-.1-.3-.6-.6-1.3-.9-2.1-1.3-.1-.1-.3 0-.4.1-.1.1-.1.3 0 .4.6.7 1.4 1.1 2.2 1.4.3.1.4 0 .4-.3zM63 46.4c.5-.1 1.2 0 1.5-.5.1-.1 0-.3-.1-.4-.5-.3-1-.1-1.6 0-.3.1-.9 0-.9.5.2.5.8.4 1.1.4zM46.1 166.6c-.4 0-.7.2-.6.7.1.6.5.9 1 .9s.6-.3.5-.7c-.1-.6-.4-.9-.9-.9zm3.1-124.4c-.1-.5-.4-.9-1-1-.4 0-.8.2-.7.6 0 .7.7.8 1.2.9.2 0 .5-.1.5-.5zm-.5 2c-.3-.5-.8-.7-1.3-.8-.2 0-.4.1-.4.3.1.7.7.8 1.2.9.3.1.5-.1.5-.4zm15.2 125.5c-.1-.4-.3-.6-.7-.6-.4 0-.7.3-.7.7 0 .5.5.6.8.6.4 0 .6-.3.6-.7zm11.7-5.1c.4-.1.6-.3.6-.7 0-.4-.3-.7-.7-.6-.4.1-.6.4-.5.8 0 .3.2.5.6.5zm-10.3 26.8c0-.4-.3-.6-.6-.6-.4 0-.7.1-.7.5s.3.5.6.5c.3.1.6 0 .7-.4zm-3-.6c-.4 0-.5.3-.5.6s0 .6.4.6c.4.1.6-.2.6-.5 0-.4-.1-.6-.5-.7zm6 2.4c-.1-.3.1-.7-.4-.7-.4 0-.7.3-.6.7 0 .4.2.7.6.7.5 0 .4-.5.4-.7zm-10.5 15.5v-3.6c0-.4 0-1 .5-1 .7 0 .6.6.6 1 0 2.3 0 4.6-.1 6.9 0 1 .3 1.6 1.3 1.7l2.1.3c4.6.5 8.8 2 12.3 5.2 4.7 4.3 4.2 9.9-1 13.6-2.1 1.5-4.5 2.5-7.1 3.2-4.9 1.4-9.9 1.3-14.8.6-4.9-.7-9.6-2.5-12.8-6.8-2.6-3.5-2.1-7.5 1-10.4 3.2-3 7-4.7 11.2-5.2 1.8-.2 3.6-.8 5.5-.5.9.1 1.1-.5 1.2-1.3.1-1.2.1-2.4.1-3.7zm-.3 13.5h.1v-3.6c0-1.5-.2-1.7-1.8-1.7-2.6 0-5.2.5-7.7 1.3-2.4.8-4.8 1.9-6.4 4.1-.8 1.1-1.5 2.2-1.1 3.7.3 1.3 1 2.4 2 3.3 3.3 3 7.4 3.9 11.6 4.6 1 .2 2.1.4 3.1.3 2.6-.2 5.2-.4 7.7-1.1 3-.8 5.8-1.8 7.8-4.3 1.2-1.5 1.9-3.1.8-5-.7-1.2-1.5-2.2-2.6-2.9-3.3-2.3-7-3.2-10.9-3.7-.9-.1-1.3.2-1.4 1.2-.2 2.7-.2 5.4-.1 8.1 0 .5.1 1.2-.6 1.2s-.8-.6-.8-1.2c.3-1.5.3-2.9.3-4.3zm-1.7 13.9c5.5.1 9.3-.6 13-2.1 2.7-1 5.1-2.4 6.6-4.9.9-1.4 1.5-2.9 1-4.7-.4-1.1-.8-2.3-1.7-3.2-1.4-1.6-3-2.7-4.8-3.6-3.2-1.5-6.5-2.4-10-2.7-.4 0-.8-.1-.8.4-.1.5.4.7.8.6 2.2 0 4.2.6 6.3 1.2 3 .9 5.7 2.4 7.7 4.8 1.6 1.9 2.2 3.7.7 6.2-1.4 2.2-3.3 3.7-5.7 4.7-4.7 1.9-9.7 2.3-14.7 2-2.6-.2-5.2-.8-7.7-1.8-3-1.3-5.5-3.2-6.9-6.3-.3-.8-.4-1.6-.2-2.4.4-1.2.9-2.2 1.7-3.1 3.1-3.4 7.2-4.6 11.6-5.1 1.3-.2 2.6-.2 3.8-.4.4 0 .8-.3.7-.8-.1-.4-.4-.5-.8-.4-3 .7-6 .6-8.9 1.6-3 1-5.8 2.5-7.7 5.1-1.1 1.5-2.1 3.1-1.5 5.1.6 2 1.7 3.7 3.4 5.1 4.7 3.6 10.1 4.4 14.1 4.7z"/>
  <path fill="#322B29" d="M105 181.2l15.6-22.2c9.4 9.8 24 18.2 42.4 18.2 15.8 0 23.2-7 23.2-14.8 0-23.2-76.8-7-76.8-57.2 0-22.2 19.2-40.6 50.6-40.6 21.2 0 38.8 6.4 52 18.6l-15.8 21.2c-10.8-10-25.2-14.6-38.8-14.6-12 0-18.8 5.2-18.8 13.2 0 21 76.6 6.8 76.6 56.6 0 24.4-17.6 42.8-53.4 42.8-25.8 0-44.2-8.6-56.8-21.2zm122.4-29.6c0-27.4 19.2-50.6 51-50.6 32 0 51.2 23.2 51.2 50.6s-19.2 50.8-51.2 50.8c-31.8 0-51-23.4-51-50.8zm75.8 0c0-15-8.8-28-24.8-28-15.8 0-24.6 13-24.6 28 0 15.2 8.8 28.2 24.6 28.2 16 0 24.8-13 24.8-28.2zm39.2 0c0-29.6 21.6-50.6 51.2-50.6 19.8 0 31.8 8.6 38.2 17.4L415.2 134c-4.6-6.8-11.6-10.4-20.4-10.4-15.4 0-26.2 11.2-26.2 28s10.8 28.2 26.2 28.2c8.8 0 15.8-4 20.4-10.6l16.6 15.6c-6.4 8.8-18.4 17.6-38.2 17.6-29.6 0-51.2-21-51.2-50.8zM511 200l-25.6-37.2-11.6 12.4V200h-25.4V66.6h25.4v79.8l36.6-43h31.2l-38.2 43.8 39.4 52.8H511zm37-48.4c0-28 20.8-50.6 50-50.6 29 0 48.4 21.6 48.4 53v6h-71.8c1.8 11.8 11.4 21.6 27.8 21.6 8.2 0 19.4-3.4 25.6-9.4l11.4 16.8c-9.6 8.8-24.8 13.4-39.8 13.4-29.4 0-51.6-19.8-51.6-50.8zm50-29.8c-15.8 0-22.6 11-23.6 20.6H622c-.8-9.2-7.2-20.6-24-20.6zm72 54v-50.2h-16v-22.2h16V77h25.4v26.4H715v22.2h-19.6V169c0 6.2 3.2 10.8 8.8 10.8 3.8 0 7.4-1.4 8.8-3l5.4 19.4c-3.8 3.4-10.6 6.2-21.2 6.2-17.8 0-27.2-9.2-27.2-26.6zm66.4 24.2v-96.6h25.4v13c7-8.4 18.8-15.4 30.8-15.4v24.8c-1.8-.4-4-.6-7-.6-8.4 0-19.6 4.8-23.8 11V200h-25.4zm76.4 15c2.2 1 5.6 1.6 8 1.6 6.6 0 11-1.8 13.4-7l3.6-8.4-39.2-97.8h27.2l25.2 67.2 25.4-67.2h27.2l-45.4 112.4c-7.2 18.2-20 23-36.6 23.4-2.8 0-9.4-.6-12.4-1.6l3.6-22.6zm99-96.8c0-8.8 7.4-16.2 16.2-16.2s16.2 7.4 16.2 16.2-7.4 16.2-16.2 16.2-16.2-7.4-16.2-16.2zm0 67.8c0-8.8 7.4-16.2 16.2-16.2s16.2 7.4 16.2 16.2-7.4 16.2-16.2 16.2-16.2-7.4-16.2-16.2zm49.2-67.8c0-8.8 7.4-16.2 16.2-16.2s16.2 7.4 16.2 16.2-7.4 16.2-16.2 16.2S961 127 961 118.2zm0 67.8c0-8.8 7.4-16.2 16.2-16.2s16.2 7.4 16.2 16.2-7.4 16.2-16.2 16.2S961 194.8 961 186z"/>
  <path fill="#76AF49" d="M1015 200V66.6h49.6c41.8 0 69.8 27.6 69.8 66.6 0 39.4-28 66.8-69.6 66.8H1015zm95.4-66.8c0-25.6-16-46-45.6-46h-26.4v92.2h26.2c29 0 45.8-20.8 45.8-46.2zM1250 200l-69.6-95.4V200H1157V66.6h24l68.2 92.4V66.6h23.4V200H1250zm42.4-18.8l13.2-18.2c9 9.8 23.6 18.6 42.2 18.6 19.2 0 26.6-9.4 26.6-18.4 0-28-77.6-10.6-77.6-59.6 0-22.2 19.2-39.2 48.6-39.2 20.6 0 37.6 6.8 49.8 18.8l-13.2 17.4c-10.6-10.6-24.8-15.4-38.8-15.4-13.6 0-22.4 6.8-22.4 16.6 0 25 77.6 9.6 77.6 59.2 0 22.2-15.8 41.4-51.6 41.4-24.6 0-42.4-8.8-54.4-21.2z"/>
</svg>
