<svg xmlns="http://www.w3.org/2000/svg" version="1.2" baseProfile="tiny" viewBox="0 0 957 236" overflow="auto">
  <path d="M71.6 20.8c5.3.1 10.3 1.3 15 3.8 2.4 1.3 4.4 3.2 5.5 5.7.5 1.3.9 2.7.9 4.2-.3 5.1-.3 10.3-.5 15.4 0 .9.5 1.7.8 2.5.7 1.6.9 3.1.9 4.9-.2 6.8 0 13.6-.2 20.4-.2 7.4.1 14.8-.2 22.3-.1 3.7 0 7.4-.1 11-.1 3.5-1.9 6.2-4.6 8.1-3.4 2.4-7.2 3.8-11.3 4.2-.5 0-1.2-.1-1.3.5-.1.6.7.8 1.2.9 1.9.4 3.5 1.4 4.8 2.9.9 1.1 1.4 2.4 1.3 3.9 0 .5 0 1.1-.1 1.6-.1 1.6.3 2.9 1.7 4.1 1.9 1.6 2.6 3.8 2.5 6.3-.1 3.4-.1 6.8-.2 10.2 0 .5 0 1-.3 1.5-.2.4-.1.9 0 1.3.6 2.5.3 5 .1 7.5-.1 2.2-1.6 3.7-3.3 4.9-.7.5-1 1.1-.9 2 .3 2 .3 4-1.3 5.6-1.6 1.6-3.6 2.5-5.8 2.9-2.8.5-5.7.7-8.6.1-2.3-.5-4.5-1.2-6.4-2.8-1.5-1.3-2.2-3-1.9-4.9.2-1.8-.2-3-1.7-4.2-1.6-1.3-2.4-3.3-2.4-5.4 0-2.2.1-4.5.2-6.7.2-2.6-.1-5.3-.1-7.9v-5.5c-.1-2.2.9-4 2.6-5.3 1.1-.8 1.4-1.7 1.3-3.1-.1-1.9-.3-3.8.9-5.5 1.1-1.6 2.5-2.8 4.4-3.3.6-.2 1.3-.4 1.9-.7.2-.1.6-.2.5-.5 0-.3-.4-.4-.6-.4-1.4 0-2.7-.4-4-.7-3.2-.9-6.2-2.3-8.7-4.5-2.7-2.3-4.1-5.1-4.1-8.6.2-13.9.2-27.7.3-41.6 0-4 .3-8 .2-12.1 0-1.5.2-2.9.9-4.2.4-.8.6-1.6.6-2.5 0-5.2 0-10.4.1-15.5 0-4.2 2.3-6.9 5.6-9 3.5-2.1 10.8-4 14.4-3.8zm16.2 58.4c.1-4 .1-8 .1-12.1 0-.4 0-.8.5-.9.6 0 .5.5.5.9 0 3.8-.1 7.7-.1 11.5-.1 7-.1 14-.2 21v13.3c0 1.1-.7 1.9-1.8 2.1-.6.1-1.2.3-1.7.6-1.2.7-2.5 1.3-3.6 2s-2.4 1.1-3.3 2c-1.2 1.3-2.8 1.5-4.3.7-.4-.2-.8-.4-1.2-.4-2.4-.2-4.7-.9-7.2-1.2-1.4-.2-2.7-.7-4.2-.4-1.2.2-2.3-.7-2.4-1.7-.3-2.8-1.5-5.2-3.3-7.3-.3-.3-.4-.7-.4-1.1 0-4.3-.2-8.7 0-13 .2-5.9.3-11.8.3-17.8 0-3.1.2-6.2 0-9.3 0-.4 0-1 .5-.9.6 0 .5.6.5 1 0 1.1-.1 2.1-.1 3.2-.1 3.6 0 7.3-.1 10.9-.1 1.4 0 2.9 0 4.3 0 .5 0 .9.7 1 .6 0 .7-.4.8-.9V70c0-.4 0-.9.5-.9.6 0 .5.5.6.9v.4c-.1 5.1-.1 10.2-.2 15.3 0 1.1.3 1.2 1.2.7 1.7-1 3.4-1.9 5-2.9.6-.4.9-.9.9-1.7V71.7c0-.7-.3-1.2-.9-1.5-1.2-.5-2.3-1.2-3.3-2-1.3-.9-3-1.4-3.4-3.2 0-.2-.2-.3-.4-.5-1.9-1.4-3.7-2.8-5.3-4.5-.2-.2-.4-.3-.6-.2-.3.1-.3.4-.3.6 0 .4.1.9.1 1.3-.1 11.5 0 23-.3 34.5-.1 4.2.2 8.4 0 12.7-.2 3.7 1.4 6.4 4.2 8.6 4.5 3.4 9.9 4.7 15.4 5 5.6.3 11-.8 16-3.5 3.6-2 5.8-4.9 6-9.2.3-9.2 0-18.5.2-27.7.1-7 .1-14 .2-21 0-.3.1-.7-.3-.8-.3-.1-.6.1-.8.4-1.4 1.9-3.4 3.1-5.4 4.2-.3.2-.6.4-.6.8 0 .8-.5 1.1-1.1 1.5-.8.4-1.5.9-2.3 1.3-.6.3-.8.7-.8 1.4 0 4.3.1 8.6-.1 12.9 0 .7.2 1.3 1 1.2.7 0 1-.5 1-1.2 0-3.5.1-7.1.1-10.6v-1.4c0-.3.1-.7.5-.6.4 0 .5.3.5.6 0 .6 0 1.3-.1 1.9-.1 3.8.1 7.6-.1 11.3 0 1 .1 2.2.4 3.2.4 1.3 1.1 2.6 1.6 3.8.2.3.3.8.8.7.5-.1.4-.6.4-.9-.3-3.7-.3-7.7-.3-11.6zm-27.1 58.3c-.1 0-.1 0 0 0v1.5c-.1 1.3-.1 2.7-1.1 3.7-.3.3-.6.7-1 .4-.4-.3-.2-.8.1-1.1.9-1 .9-2.3 1-3.6 0-.4.1-.8-.3-1-.4-.2-.7.2-.9.5-2.3 2.7-2.5 5.4.3 8 2.1 2 4.6 3.1 7.4 3.7 3.4.6 6.8 1.2 10.2.5 2.9-.6 5.6-1.5 7.9-3.3 3.1-2.4 3.4-5.4.9-8.4-.2-.3-.5-.7-.9-.5-.5.2-.4.6-.4 1 0 1.3.1 2.5 1 3.6.3.3.5.7 0 1.1-.4.3-.8-.1-1-.4-.7-1-1.1-2-1.1-3.2 0-1.5.3-2.9.1-4.4 0-.3 0-.7-.4-.9-.4-.2-.6.1-.9.3-.6.6-1.2 1-1.9 1.3-2.3 1-4.8 1.6-7.3 1.6-2.4 0-4.8-.4-7.1-1.3-1.4-.5-2.6-1.2-3.7-2.2-.2-.2-.4-.4-.7-.3-.3.2-.2.5-.2.7-.2 1-.1 1.9 0 2.7zm8.7-45.7s.1 0 0 0c.1-1.7.1-3.3.1-5 0-1.3-.5-1.9-1.5-1.9s-1.8.8-1.7 2v9.6c0 .2-.2.4-.4.4-.3 0-.5-.1-.5-.4-.1-.3 0-.5 0-.8V88c0-1-.2-1.1-1-.6-2 1.1-4 2.3-6 3.4-.6.4-.6.7-.3 1.3.8 1.6 1.7 3.1 2 4.9.1.8 1 1.4 1.8 1.1.9-.3 1.7-.1 2.5.1s1.5.3 2.3.4c2.7.5 5.5.6 8.1 1.6 1 .4 1.9.2 2.7-.5 1.5-1.2 3.2-2.1 5-3 .5-.3 1.4-.4 1.3-1.3-.2-2.4.1-4.8.1-7.1 0-.6-.3-.9-.9-1-.6-.1-1.1.2-1.1.9v7.1c0 .4 0 .9-.5.9-.4 0-.6-.4-.6-.8v-6.6c0-.9-.2-1.3-1.1-1.4-2.6-.4-5.1-.9-7.6-1.4-.8-.2-1.2 0-1.2 1 .1 3.4-.3 6.7-.1 10.1 0 .4 0 .9-.6.9-.5 0-.5-.5-.5-.9-.3-1.8-.3-3.5-.3-5.3zm4 19.6h.1v-6.5c0-1.3-.2-1.5-1.5-1.7-1.2-.2-2.3-.2-3.4-.9-.7-.4-1.5-.2-2.1.4-.8.9-1.8 1.5-2.8 2-.7.3-.9.8-.9 1.5v10c0 .8.3 1.3 1.2 1.5 2.7.7 5.5.8 8.1 1.5.9.2 1.3-.1 1.3-1.1v-6.7zm18.1-66.2c0-2.1-.1-4.3.1-6.4 0-.3.1-.7-.4-.9-.4-.1-.5.2-.7.4-.5.8-1.2 1.5-2 2s-1 1.2-1 2.1v7c0 .4.1 1-.5.9-.6 0-.4-.6-.4-1 0-2.2.1-4.4.1-6.6 0-.7-.2-1.1-1-.7-2.1 1.1-4.3 1.8-6.6 2.2-.7.1-1 .6-1 1.2 0 .8 0 1.6-.1 2.4-.1.9.2 1.5 1 1.9 1.9 1.1 3.8 2 5.8 2.8.8.3 1.2.8 1.2 1.8.1 1.7 0 3.5-.1 5.2 0 .9.5 1.2 1.2.7 1.4-1 2.6-2.2 3.4-3.7.8-1.6 1.3-3.1 1-5-.2-2.1 0-4.2 0-6.3zm-18.9 7.4c.1 1.6.1 3.3.1 4.9 0 .4 0 .9-.5.9s-.5-.5-.5-.9c0-1.5 0-3.1.1-4.6 0-1.7.1-3.5.1-5.2 0-.9-.4-.9-1-.6-.3.2-.6.4-.9.7-1.3 1-2.7 1.9-4.2 2.7-1 .5-1.8 1-1.5 2.3.1.4-.1.7-.5.8-.5.1-.6-.3-.6-.6-.1-.8-.6-.9-1.2-.7-.3.1-.6.2-1 .4s-.9.2-.9.7c-.1.5.5.6.8.8 3.1 2.1 6.3 3.9 9.6 5.6 1.2.6 2.1.7 3.2.1 1.3-.7 2.6-1.3 3.9-1.9 2.1-1 4-2.3 5.9-3.6.8-.5.7-1-.1-1.4-1.2-.6-2.3-1.2-3.5-1.7-1.8-.9-1.8-.8-1.9 1.1 0 .3 0 .8-.4.8-.6 0-.3-.5-.4-.9v-.2c.1-2-.3-2.7-2.1-3.6-.6-.3-.9-.1-.9.6s0 1.4.1 2c0 .4.1 1-.5 1s-.4-.6-.4-1v-3.4c0-.3-.1-.8-.6-.7-.5 0-.3.5-.3.8 0 1.6.1 3.2.1 4.8zM71.7 22c-3.7.2-7.3.7-10.8 2.3-2.7 1.2-5 2.9-6.3 5.7-.8 1.6.1 5.2 1.5 6.3.2.2.4.4.7.2.2-.1.3-.3.2-.5-.2-1.4.2-2.7-.1-4.1-.2-1.2.1-1.8 1.2-2.1 1.6-.4 3-1.3 4.5-2.2 1.5-.9 3.1-1.5 4.4-2.7.9-.8 2.1-.8 3.2-.2.5.2.9.4 1.4.5 2.5.4 5 .9 7.4 1.3.9.2 1.8.4 2.7.1 1.1-.3 2.3.6 2.3 1.6.2 2.4 1.5 4.3 2.8 6.3.4.6.7 1.1.7 1.9 0 .2-.1.5.2.6.2.1.5-.1.6-.3 1.1-1.5 2.1-3.1 1.7-5-.6-3-2.7-4.9-5.3-6.3-3.9-2.4-8.4-3.2-13-3.4zm-.6 11.1H71v5.8c0 .9.3 1.3 1.2 1.5 1 .2 2.1.4 3 .9.6.4 1.2.1 1.7-.4.7-.7 1.4-1.3 2.3-1.7.7-.3.9-.8.9-1.5v-8.9c0-.9-.3-1.3-1.2-1.4-2.2-.4-4.3-.8-6.5-1.3-.9-.2-1.3.1-1.2 1-.1 2.1-.1 4-.1 6zm-11 14.1h.1c0-1-.1-2.1 0-3.1.2-1.2-.3-1.8-1.2-2.3-.3-.2-.6-.3-1-.2-.4.2-.3.6-.3.9 0 2.1-.1 4.3-.1 6.4 0 .3 0 .7-.4.7s-.4-.4-.4-.7c.2-2.4-.2-4.9 0-7.3.1-.6-.2-1.1-.6-1.4-1-.7-1.8-1.6-2.6-2.5-.2-.2-.3-.5-.7-.4-.3.1-.3.5-.3.8.1 4.6.3 9.3-.1 13.9 0 .5 0 1 .1 1.5.4 2.8 2.2 4.6 4.3 6.3.2.2.5.4.8.2.3-.2.3-.5.2-.8-.2-1.8 0-3.6 0-5.4 0-.8.3-1.4 1.1-1.6.9-.2 1.1-.7 1-1.5.2-1.1.2-2.3.1-3.5zm20.4 29.9c.1 0 .1 0 0 0 .1-2 .1-3.9.1-5.9 0-1-.3-1.2-1.1-.7-1.6.9-3.1 1.9-4.7 2.6-1 .5-1.7 1.5-3 1.2-.8-.2-1.2.1-1.2 1 .1 1.8.1 3.7.1 5.5 0 1.6.1 1.8 1.7 2.1 2.3.4 4.7.7 7 1.2.9.2 1.2-.1 1.2-1-.1-2-.1-4-.1-6zm-5.4 79.1c0-.6-.1-1.2 0-1.8.2-1.2-.4-1.8-1.5-2l-.9-.3c-3-.7-6.1-.9-9.2-1.4-.4-.1-.9-.1-1.3 0-1.5.2-1.9.7-1.9 2.2 0 1 0 2-.1 3-.2 1.6.2 2.1 1.8 2.3l5.4.6c.8.1 1.1-.2 1.1-1v-1.3c0-.3 0-.8.5-.7.4 0 .5.4.5.8 0 .3 0 .6-.1.9-.1 1.3.2 1.7 1.5 1.8l3 .3c.9.2 1.1-.2 1.1-1 .1-.8.1-1.6.1-2.4zm3.1-44.8h-.1v5.8c0 .9.4 1.2 1 .7.9-.7 2-1.2 3-1.7 1.5-.8 2.7-1.9 4.5-2.1.7-.1.8-.7.3-1.4-1.6-2.1-2.7-4.4-3.2-6.9-.2-.8-.6-1.3-1.5-1.2-.9.1-1.8 0-2.6-.1-1.1-.2-1.4.1-1.4 1.2v5.7zM76.3 156s-.1 0 0 0c-.1.7 0 1.5-.1 2.2 0 .5.1.9.6.9.6 0 .9-.3.9-.9 0-.4-.1-.8-.1-1.2 0-.3.1-.6.5-.7.4 0 .5.3.6.6.3 1.3.3 1.3 1.5.7 1.7-.8 3.5-1.7 5.3-2.4.9-.4 1.2-.9 1.3-1.7 0-1.5 0-3-.1-4.5 0-1-.4-1.2-1.3-.9-2.4.8-4.6 1.9-6.8 3-1.5.8-2.6 1.8-2.3 3.8v1.1zm-4.5-93.4c0-1-.2-1.3-1.3-2-3.5-1.9-7-3.8-10.3-6-.8-.5-1.3-.3-1.2.7.2 1.6.1 3.2 0 4.8 0 .5.2.9.7 1.2 1.2.7 2.5 1.1 3.8 1.6 2.1.8 4.3.8 6.5 1.3 1.2.2 1.8-.2 1.8-1.6zm2.4 1.5c1.4-.2 3.1-.4 4.8-.7 1.7-.3 3.4-.9 5.1-1.5.8-.3 1.1-.8 1-1.7-.1-1.5-.2-3.1 0-4.6 0-.3.1-.6-.2-.8-.4-.2-.6 0-.9.3-1.8 1.5-3.9 2.6-6 3.7-1.6.8-3.2 1.5-4.8 2.3-.8.4-1 1.4-.8 2.4.3.8 1 .6 1.8.6zm-8.1-30.9s.1 0 0 0c.1-1.6.1-3.3.1-4.9 0-1.2-.2-1.3-1.2-.8-2.2 1-4.2 2.4-6.4 3.3-.2.1-.3.2-.4.4 0 .3.1.5.4.5.6.1.8.6 1 1.1.4 1 .9 1.9 1.1 3 .5 2.5 2 3.3 4.4 3.3.9 0 1.2-.2 1.2-1-.2-1.6-.2-3.3-.2-4.9zm12.4 132.5c0 1.1-.1 2.1 0 3.2 0 .6.1 1.2.9 1.2s.7-.7.7-1.2v-5.8c0-.4 0-.9.5-.9.6 0 .4.6.4 1 0 1.7-.1 3.4-.1 5.1 0 .9.5 1.3 1.3.8 1.3-.9 2.7-1.8 3.5-3.3 1.2-2.2.8-4.6.9-6.9 0-.7-.5-.7-1-.4-2 .9-4.1 1.8-6.1 2.8-.7.3-1 .8-1 1.5v2.9zm-6.3-30.2c1 .2 2.4-.3 3.8-.7 1.7-.4 3.2-1.2 4.2-2.6 1.5-2.2 1.6-3.1-.3-4.8-1.7-1.6-3.9-2.3-6.1-2.7-.4-.1-.9-.2-1 .3-.1.6.3.8.8.8 1.1.1 2.1.5 3.1.9 2.8 1 3.6 4.1 1.3 5.8-1.8 1.4-4 1.9-6.2 2-.8 0-1.5-.4-2.3-.4-1.8 0-3.2-.9-4.5-1.9-1.2-1-1.4-2.4-.7-3.8.5-.8 1.1-1.4 2-1.8 1.2-.5 2.4-.9 3.6-.9.4 0 .8-.2.8-.7 0-.4-.3-.6-.7-.6-2.9.5-5.7 1.2-7.7 3.7-.7 1-.7 1.9-.2 2.9.5.8 1.1 1.5 1.9 2.1 2.5 1.6 5 2.2 8.2 2.4zm15.4-30.8c.1-1.9 0-3.8.1-5.7 0-.9-.4-1.2-1.2-1.1-.4.1-.8.2-1.2.5-.7.5-1.5.8-2.3 1.3-1.4.8-2.8 1.6-4.2 2.3-.3.2-.5.4-.4.7 0 .4.3.6.7.7.4.1.8.2 1.2.2.6 0 1.3-.1 1.9-.1 1.8 0 2.6.8 2.7 2.5 0 .5.2.9.4 1.3.5 1 .9 2.1 1.3 3.1.1.3.2.8.7.8.6-.1.4-.6.4-1-.1-1.9-.1-3.7-.1-5.5zm-13.3 6.9c-.1 0-.1 0 0 0-.1 2.2 0 4.4-.1 6.6 0 1.2.4 1.8 1.4 1.8 1 0 1.8-.8 1.8-1.8-.2-4.4-.3-8.8 0-13.1.1-1-.4-1.3-1.9-1.3-.9 0-1.2.4-1.2 1.2v6.6zm-1 63.7v-1c.1-1.8 0-1.9-1.8-1.9s-3.5.1-5.2-.6c-.7-.3-1.1 0-1.1.7 0 .8 0 1.7-.1 2.5 0 1.2.2 1.6 1.4 1.8 1.6.3 3.2.6 4.8.8 1.9.3 1.9.8 1.9-1.6.1-.2.1-.4.1-.7zM70.2 32.8v-6c0-.8-.3-1.3-1.1-1.4-1-.1-1.9.8-1.8 1.9.3 3.2.1 6.4 0 9.6 0 .6-.1 1.2 0 1.8.1.8 1.1 1.3 2.2 1.2.9-.1.8-.7.7-1.4-.2-1.9-.3-3.8 0-5.7zm-7.6 132.7h.1v3.7c0 .6.4.8 1 .8.5 0 .8-.3.7-.8-.3-1.8.1-3.6-.1-5.4 0-.3-.1-.8.4-.8.5-.1.6.4.6.8v3.7c0 .7-.4 1.5.3 1.9.7.3 1.2-.5 1.8-.8.6-.3 1.3-.7 1.2-1.6v-4.2c0-.5-.1-.8-.6-.9-1.4-.2-2.9-.5-4.3-.6-.6-.1-1 .2-1 1 0 1-.1 2.1-.1 3.2zM56 97.8c-.2 2.7-.2 5.4-.2 8.1 0 .5.1.9.6 1 1.1.4 2.4-.5 2.4-1.7 0-1.3.1-2.6 0-3.9 0-1.1.1-2.3-.2-3.3-.4-1.4-1.2-2.6-1.5-4-.1-.4-.4-.8-.9-.7-.5.1-.4.6-.4.9.3 1.3.3 2.5.2 3.6zm19.3 67.8h-.1v-2c0-.5-.2-.9-.8-1-1.2-.1-2.5-.3-3.7-.6-.7-.2-1.2.2-1.2 1v3.8c0 .2.1.5.3.6.3.4 2.9 1 3.3.8.8-.4.3-1.1.5-1.7v-.2c.1-.3.1-.6.5-.6s.6.3.6.6v1.4c0 .3 0 .6.4.6.3 0 .4-.3.5-.6-.3-.7-.3-1.4-.3-2.1zm-2.8-95V72c0 .7.4.9 1 .6.5-.3 1.1-.6 1.6-.9 2.8-1.5 5.7-2.9 8.5-4.4.3-.2.8-.3.6-.8-.2-.5-.7-.1-1 0-3 1.1-6.1 1.5-9.3 1.6-1.2 0-1.5.3-1.5 1.5.1.4.1.7.1 1zm-6.1 6.1c-.1 1.4-.1 2.7-.1 4.1 0 .8.3 1.2 1.2 1.1.2 0 .5-.1.7 0 .9.2 1.2-.3 1.2-1.1 0-2.2.1-4.4.1-6.6 0-.5-.2-.9-.6-1.2-.5-.3-.9-.6-1.3-.9-.7-.4-1.2-.2-1.2.7v3.9zm-6.2-10.4c0 .3.2.4.4.5 1.2.7 2.3 1.5 3.5 2.1 2.1 1.3 4.3 2.5 6.5 3.7 1 .5 1.2.4 1.2-.7 0-.7 0-1.4.1-2 .1-1.3-.3-1.8-1.6-1.8-3.3-.1-6.3-.6-9.1-1.9-.3-.1-.7-.3-1 .1zm10.1 63.6v2c0 .6.3 1 .9 1.1 1.7.5 3.2 0 4.6-1.1.6-.5.6-3.6 0-4.1-.1 0-.1-.1-.2-.1-.9-.2-1.9-.7-2.8-.3-.7.3-.3 1.2-.4 1.9v.2c0 .5-.2.8-.7.7-.5 0-.7-.3-.7-.8v-1.6c0-.3.1-.8-.4-.8-.4 0-.4.5-.4.8 0 .8.1 1.5.1 2.1zm-8.2-18.2v-4.8c0-.8-.4-1.1-1.2-.7-.9.5-1.6 1.1-1.3 2.3.1.4.1.8 0 1.2-.4 2.2-.2 4.5.2 6.7.2.7.4 1.3 1.2 1.2.9 0 .8-.8.8-1.4.1-1.5.1-3 .3-4.5zm2-64.8c.1 0 .1 0 0 0 .1.3.1.6.1.9v.9c0 1 .4 1.3 1.3.8.8-.5 1.6-.9 2.3-1.4 1.1-.7 2.1-1.5 3.2-2.3.2-.2.5-.4.4-.8-.1-.3-.4-.3-.6-.3-1.9.2-3.6-.3-5.4-.7-.9-.2-1.2.1-1.2 1 0 .7-.1 1.3-.1 1.9zm10.8 20.2c3.2-.1 6.2-.9 9.1-1.9.4-.1.7-.3.9-.7.3-.5.4-1 0-1.5s-.8-.1-1.2 0c-2 .9-4.1 1.4-6.2 1.8-1.3.2-2.6.2-4 .3-.7.1-1.1.4-1.1 1.1 0 .6.5.9 1 .9h1.5zm-4.5 0c.5-.1 1.3-.1 1.3-.9 0-.9-.6-1.2-1.4-1.2-3.5 0-6.9-.8-10.1-2.2-.4-.2-.9-.4-1.2.2-.3.6-.2 1.1.4 1.5.8.5 1.6.7 2.4 1 2.9 1 5.7 1.3 8.6 1.6zm-11 96.6c-.1-1.1.2-2.2-.1-3.2-.4-1.2-1.2-2.3-1.8-3.4-.2-.3-.4-.7-.8-.5-.4.1-.4.6-.3.9.2 1.6 0 3.3.1 4.9.1 1.7.8 3.1 1.8 4.4.2.3.5.5.9.4.4-.1.3-.5.3-.9-.1-.9-.1-1.7-.1-2.6zm14.9 11.6c0 .3-.1.9-.1 1.5 0 .8.4 1 1 .6l3.9-2.4c.3-.2.6-.5.5-.8-.3-.8-.7-1.7-1.3-2.3-.5-.5-1.1 0-1.6.2-2.4.5-2.4.5-2.4 3.2zm-2.1-38.2c3.3-.2 6.5-1.1 9.2-3.4.6-.5 1-1.1 1.1-1.9 0-.2.1-.5-.2-.6-.3-.1-.4.2-.5.4-.2.5-.4.9-.8 1.3-1.9 2.1-4.4 2.8-7.1 3.2-2.4.3-4.7 0-7-.7-2.6-.8-5-2-5.7-5-.1-.2-.2-.5-.5-.4-.3.1-.3.4-.2.6.1 1.5.9 2.6 2 3.5 2.8 2.2 6.2 2.7 9.7 3zm-15.6 12.2c-.7 2.2.7 4 1.8 5.8.2.3.4.6.8.5.3-.1.4-.4.4-.7 0-2.4.1-4.8-1.3-7-.2-.3-.4-.7-.6-1.1-.2-.3-.5-.6-.9-.5-.4.1-.3.5-.3.9 0 .6 0 1.2.1 2.1zM82.9 32.5v-3.9c0-.5-.1-1-.7-1s-1.1.2-1.2.9v.8c0 2.4-.1 4.9-.1 7.3 0 .4-.2.8.3 1 .5.2.8 0 1.2-.3.5-.3.5-.8.5-1.3v-3.5zm10.3 23.7c0-.7-.1-1.1-.4-1.1-.5-.1-.6.4-.7.7-1 2.3-2.5 4.1-4.6 5.4-.4.3-.8.5-1.1.8-.5.4-.7 1-.4 1.5.4.6 1 .2 1.4 0 2-1.1 3.5-2.7 4.7-4.7.6-.8 1-1.8 1.1-2.6zm-34.9 6.7c0-.7-.4-1.2-.8-1.5-2.4-1.7-4.6-3.5-5.3-6.6-.1-.2-.2-.5-.5-.4-.3 0-.4.3-.4.6v.4c-.1 3.2 3.5 6.8 6.1 8.1.5.2.8-.1.9-.6zm5-15.7v-2.9c-.1-.8-.7-1.1-1.5-1.1-.7 0-.7.6-.6 1.2.1 2 0 3.9-.2 5.9 0 .3-.1.7.2.9.4.3.8.2 1.2 0 .7-.4 1.1-.8 1-1.7-.2-.8-.1-1.5-.1-2.3zm6 83.1c0-.6.1-1.3 0-1.9 0-.7-.4-.8-1-.5-.7.3-1.4.8-2.1.9-.3.1-.4.3-.5.6-.3 1.3 1.3 3.5 2.6 3.5.6 0 .9-.3.9-.8.1-.7.1-1.3.1-1.8zm-5.2-31.1c-.5 0-1-.1-1 .5-.1.6.3.8.8.8.4 0 .8 0 1.1.1 2.4.7 5 .6 7.4 1.4h.3c.3 0 .6-.1.8-.4.2-.4-.1-.7-.3-.9-.4-.3-.8-.3-1.2-.4-1 0-1.9-.2-2.9-.4-1.8-.2-3.5-.4-5-.7zm7 72.1h1.1c.6 0 1.2-.1 1.2-.9s-.3-1.1-1.1-1.2c-.8-.1-1.7-.2-2.5-.5-.5-.2-.9 0-1.4.3-.5.3-.9.5-1.4.8-.2.1-.5.2-.5.5 0 .4.4.5.7.5 1.3.2 2.6.6 3.9.5zm8.4-84.8c.6.1 1 0 1-.4s0-.8-.5-.9c-.5-.1-.9-.2-1.4-.3-2.5-.4-4.9-.8-7.4-1.2-.4-.1-.8-.3-.9.3-.1.6.1.9.7 1 1 .1 1.9.3 2.8.5 2.1.4 4.1.3 5.7 1zM79 41.6c.3-.1.8-.2 1.2-.4 1.3-.5 2.7-1 4-1.6.7-.3 1.5-.7 2-1.3.3-.3.8-.6.4-1.1-.3-.4-.8-.3-1.2-.1-2.2 1.1-4.3 2.2-6.5 3.4-.2.1-.3.2-.5.4-.2.1-.3.3-.2.5.3.2.5.2.8.2zm-6.8 1c.2-.1.8.3.9-.4.1-.7-.6-.6-1-.7-2.2-.6-4.4-.7-6.6-1.2-.5-.1-1-.3-1.2.3-.2.7.4 1 .9 1.1 2.3.1 4.5.8 7 .9zM60.3 171.8c0 1.9.6 3.2 2.1 4.6.4.3.8.9 1.3.5s-.1-.9-.3-1.3c-.6-1.4-1.7-2.5-1.6-4.2 0-.4-.2-1.2-.9-1.1-.7.1-.5.7-.6 1.2v.3zm-3-81.9c.2-.1.5-.1.7-.2 2.2-1.3 4.5-2.6 6.7-3.9.4-.2.8-.6.5-1-.2-.4-.7-.1-1 .1-2.4 1.4-4.7 3-7.4 3.9-.3.1-.5.3-.5.7.3.4.6.4 1 .4zm20.4 75.8v-2.6c0-.3 0-.7-.4-.8-.4-.1-.7.2-.9.5-.2.2-.2.5-.2.8 0 1-.1 2-.1 3 0 .5-.1 1 0 1.5 0 .6.4.9 1 .9s.6-.5.6-1v-2.3zm-16-.8v-3.3c0-.4-.1-.7-.6-.7-.4 0-.7.2-.7.6v.8c0 1.7.1 3.4-.1 5.1 0 .3 0 .5.1.8.1.4.5.6.9.5.5-.1.4-.5.4-.8v-3zM57.8 35.6c-.2 1.3-.1 2.5 1.2 3.3.3.2.7.4 1 .2.4-.2.4-.7.2-1-.6-1.4-1.1-2.8-1.7-4.2-.1-.2-.2-.4-.5-.3-.2.1-.3.3-.3.5.1.4.1.9.1 1.5zm1.9 67.7v.9c0 .4-.1.8.3 1 .4.2.8 0 1.2-.2 1.1-.5 1.2-1.4 1-2.5-.1-1.1-.4-1.3-1.4-1.3-.9 0-1.2.5-1 1.3-.1.3-.1.5-.1.8zm7.4 57.5c.6 0 1.1.1 1.2-.4.1-.4-.2-.6-.5-.6-2.3-.5-4.7-.5-7-1-.2 0-.4 0-.5.2-.1.2 0 .4.1.6.2.3.5.4.9.5 1.9.1 4 .2 5.8.7zm8.6-116.1c-.5.1-1.1 0-1.4.6-.3.5-.1 1 .2 1.3.5.6 1 1.1 1.7 1.4.6.3 1 0 1-.8 0-.4-.1-.9-.1-1.3.1-.9-.5-1.2-1.4-1.2zm-5.1 115.4c-.4 0-.9-.1-1 .4-.1.5.4.5.8.6 1 .1 1.9.3 2.9.5 1.2.2 2.6.5 3.7-.5.2-.2.6-.2.4-.6-.1-.4-.5-.3-.8-.2-1.1.5-2.1.3-3.2.2-.9-.2-1.9-.3-2.8-.4zm8.8-.1c.1 0 .2 0 .3-.1 1.2-.7 2.7-.9 3.9-1.8.7-.5 1.6-.5 2.2-1.2.1-.2.4-.4.2-.6-.2-.2-.4-.2-.6-.1-2 1-4.1 2-6.1 3-.2.1-.3.3-.3.5-.1.3.1.4.4.3zM91.1 32.2c-.3.3-.2.6-.2 1 0 1.1-.3 2.1-.9 3-.6.8-1.3 1.5-2 2.2-.2.2-.4.5-.2.8.3.3.6 0 .8-.2.9-.8 1.7-1.6 2.4-2.6.8-1.2.8-3.1.1-4.2zm-38.2 1.2c0 2.5 1.8 3.9 3.3 5.5.1.2.4.2.6 0 .2-.2.1-.4-.1-.6-.3-.3-.6-.6-.8-.9-.9-1.2-2.1-2.3-2.2-4 0-.5.4-1.4-.4-1.4-.5-.1-.2.9-.4 1.4zm27.8 139.2v1c0 .5.3.9.8 1 .6.1.7-.4.8-.9.1-.8.2-1.6.2-2.3 0-.4-.1-.9-.6-.9s-1 .2-1.1.8c0 .4 0 .9-.1 1.3zM72 44.1c.2 0 .8.1.9-.4.1-.7-.6-.5-1-.5-2.2.2-4.3-.4-6.5-.7-.3 0-.8-.2-.9.2-.1.5.4.4.7.5 2.2.5 4.4.6 6.8.9zm-13.3 66v-1.6c0-.4-.2-.6-.6-.6-.6 0-1.2-.1-1.6.4-.3.3-.2.7 0 1 .3.3.5.6.8.9.4.5.4 1.6 1.1 1.4.7-.1.3-1.1.3-1.5zm20.7-66.9c2.3-.4 4.5-1.4 6.7-2.5.2-.1.4-.3.2-.5-.2-.3-.5-.2-.8-.1-2 1-4.1 2.1-6.4 2.3-.3 0-.5.2-.5.5.1.4.4.4.8.3zm4.5-8.9v1c0 .3-.1.7.3.9.4.2.7-.1 1-.3.5-.4.7-.8.3-1.4-.3-.5-.4-1-.7-1.5-.1-.3-.2-.8-.6-.7-.4.1-.3.5-.3.8v1.2zm0 63.8c.8-.6 2-.9 3.1-1.3.3-.1.5-.6.3-1s-.6-.5-1-.3c-1 .5-2 1.1-3 1.7-.2.1-.3.3-.2.6 0 .3.3.3.8.3zm-9.3 80.2c.3.4.5.4.8.3 1.8-.5 3.5-1.2 5.1-2.2.3-.2.4-.5.2-.8-.3-.3-.6-.3-.9-.1-1.6 1.2-3.2 2.2-5.2 2.8zm4.2-77.3c1-.6 2.3-1.1 3.3-1.9.2-.2.6-.4.3-.8-.3-.3-.6-.1-.9 0-.8.4-1.7.9-2.5 1.4-.3.2-.6.5-.7.8-.1.3 0 .5.5.5zm-15.9 1.5c0 .4-.2.9.5 1 .5.1 2-.9 2-1.4 0-.9-.7-.8-1.2-.9-1 0-1.4.4-1.3 1.3zm21.5-9.1v.8c0 .4-.1 1 .6 1 .6 0 1-.4 1-.9 0-.3-.1-.6-.2-.9-.2-.5-.4-1.4-1.1-1.2-.6 0-.2.8-.3 1.2zm-16.2-9.3h.8c.3 0 .6.1.6-.3.1-.3 0-.6-.3-.7-.6-.3-1.3-.7-2-.3-.4.2-1 .4-.9.9.1.6.7.2 1.1.3.2.1.4.1.7.1zm3.9 94.8c0-.1 0-.2.1-.4-2.1-.4-4.3-.7-6.4-1.1 0 .1 0 .2-.1.3 2 .8 4.1 1.4 6.4 1.2zm3.7-76c.3 0 .5 0 .8-.2.4-.3.8-.5.6-1-.2-.5-.6-.3-1-.2-.4 0-.7 0-1.1.1-.3 0-.6.1-.7.5 0 .3.2.6.4.7.3 0 .7.1 1 .1zm6.7-16.4c.4-.1 1.1.1 1-.6 0-.6-.6-.9-1.1-.9-.5 0-.9.2-1 .8-.1.8.6.7 1.1.7zm-18 86.2c-.1-.5.1-1.2-.7-1.2-.4 0-.8.2-.7.7.1.6.3 1.3 1 1.4.5.1.3-.5.4-.9zm-3.3-72.2c.5 0 .8-.2.7-.7-.1-.5-.4-.9-.9-.9-.4 0-.8.2-.8.7 0 .6.5.8 1 .9zm-1.1-59.7c0-.1-.1-.2-.1-.3-.5-.5-1.2-.8-1.8-1.1-.1 0-.3 0-.4.1-.1.1-.1.2 0 .4.5.6 1.2 1 2 1.2.1 0 .3-.1.3-.3zm15.3 3c.5-.1 1 0 1.3-.5 0-.1 0-.3-.1-.3-.4-.3-.9-.1-1.4 0-.3 0-.8 0-.8.5.2.4.7.3 1 .3zM60.6 148.7c-.3 0-.6.2-.5.6.1.5.4.8.9.8.4 0 .5-.3.5-.6-.1-.5-.4-.8-.9-.8zm2.7-108.5c-.1-.5-.4-.8-.9-.9-.3 0-.7.1-.6.5 0 .6.6.7 1 .8.3 0 .6-.1.5-.4zm-.4 1.7c-.2-.4-.7-.6-1.1-.7-.2 0-.4.1-.3.3.1.6.6.7 1.1.7.2.1.3 0 .3-.3zm13.3 109.5c0-.3-.2-.6-.6-.5-.3 0-.6.2-.6.6 0 .4.4.5.7.5.4 0 .5-.2.5-.6zm10.2-4.4c.3-.1.6-.3.5-.6 0-.3-.2-.6-.6-.5-.4.1-.5.3-.5.7.1.2.3.4.6.4zm-9 23.3c0-.3-.2-.5-.5-.5s-.6.1-.6.5c0 .3.3.4.6.4.2.1.4 0 .5-.4zm-2.6-.5c-.3 0-.4.3-.4.6s0 .5.3.5.5-.2.5-.5-.1-.5-.4-.6zm5.3 2.1c0-.3.1-.6-.3-.6-.3 0-.6.3-.5.6 0 .3.2.6.5.6.4 0 .2-.4.3-.6zm-9.2 13.6v-3.2c0-.4 0-.9.5-.9.6 0 .5.5.5.9 0 2 0 4-.1 6 0 .9.3 1.4 1.1 1.5l1.8.3c4 .5 7.7 1.7 10.7 4.5 4.1 3.8 3.7 8.6-.9 11.9-1.9 1.3-4 2.2-6.2 2.8-4.3 1.2-8.7 1.1-12.9.5-4.3-.6-8.4-2.2-11.1-5.9-2.2-3-1.8-6.5.9-9.1 2.8-2.6 6.1-4.1 9.8-4.5 1.6-.2 3.1-.7 4.8-.4.7.1 1-.4 1-1.1.1-1.2.1-2.2.1-3.3zm-.3 11.7h.1V194c0-1.3-.2-1.5-1.5-1.5-2.3 0-4.5.4-6.7 1.2-2.1.7-4.2 1.7-5.6 3.6-.7.9-1.3 1.9-1 3.2.3 1.1.9 2.1 1.7 2.8 2.9 2.7 6.5 3.4 10.2 4 .9.2 1.8.4 2.7.3 2.3-.2 4.5-.4 6.7-1 2.6-.7 5.1-1.6 6.8-3.8 1.1-1.3 1.7-2.7.7-4.4-.6-1-1.3-1.9-2.3-2.6-2.8-2-6.1-2.8-9.5-3.3-.8-.1-1.2.2-1.2 1.1-.1 2.3-.1 4.7 0 7 0 .4.1 1-.5 1.1-.6 0-.7-.5-.7-1.1.1-1 .1-2.2.1-3.4zm-1.5 12.1c4.8.1 8.1-.6 11.4-1.8 2.3-.9 4.4-2.1 5.8-4.3.8-1.2 1.3-2.6.9-4.1-.3-1-.7-2-1.4-2.8-1.2-1.4-2.6-2.4-4.2-3.2-2.8-1.3-5.7-2.1-8.7-2.4-.3 0-.7-.1-.7.4s.3.6.7.6c1.9 0 3.7.6 5.5 1.1 2.6.8 5 2.1 6.7 4.2 1.4 1.6 1.9 3.2.6 5.4-1.2 2-2.9 3.3-4.9 4.1-4.1 1.7-8.4 2-12.8 1.7-2.3-.2-4.6-.7-6.7-1.6-2.7-1.1-4.8-2.8-6-5.5-.3-.7-.4-1.4-.1-2.1.3-1 .8-1.9 1.5-2.7 2.7-2.9 6.3-4 10.1-4.5 1.1-.1 2.2-.2 3.4-.3.4 0 .7-.3.6-.7-.1-.4-.4-.4-.7-.4-2.6.6-5.3.5-7.8 1.4-2.6.9-5 2.2-6.7 4.4-1 1.3-1.8 2.7-1.3 4.4.5 1.7 1.5 3.3 2.9 4.4 3.7 3.3 8.4 4.1 11.9 4.3z"/>
  <path fill="#322B29" d="M123 163.2l15.6-22.2c9.4 9.8 24 18.2 42.4 18.2 15.8 0 23.2-7 23.2-14.8 0-23.2-76.8-7-76.8-57.2 0-22.2 19.2-40.6 50.6-40.6 21.2 0 38.8 6.4 52 18.6l-15.8 21.2c-10.8-10-25.2-14.6-38.8-14.6-12 0-18.8 5.2-18.8 13.2 0 21 76.6 6.8 76.6 56.6 0 24.4-17.6 42.8-53.4 42.8-25.8 0-44.2-8.6-56.8-21.2zm122.4-29.6c0-27.4 19.2-50.6 51-50.6 32 0 51.2 23.2 51.2 50.6s-19.2 50.8-51.2 50.8c-31.8 0-51-23.4-51-50.8zm75.8 0c0-15-8.8-28-24.8-28-15.8 0-24.6 13-24.6 28 0 15.2 8.8 28.2 24.6 28.2 16 0 24.8-13 24.8-28.2zm39.2 0C360.4 104 382 83 411.6 83c19.8 0 31.8 8.6 38.2 17.4L433.2 116c-4.6-6.8-11.6-10.4-20.4-10.4-15.4 0-26.2 11.2-26.2 28s10.8 28.2 26.2 28.2c8.8 0 15.8-4 20.4-10.6l16.6 15.6c-6.4 8.8-18.4 17.6-38.2 17.6-29.6 0-51.2-21-51.2-50.8zM529 182l-25.6-37.2-11.6 12.4V182h-25.4V48.6h25.4v79.8l36.6-43h31.2l-38.2 43.8 39.4 52.8H529zm37-48.4c0-28 20.8-50.6 50-50.6 29 0 48.4 21.6 48.4 53v6h-71.8c1.8 11.8 11.4 21.6 27.8 21.6 8.2 0 19.4-3.4 25.6-9.4l11.4 16.8c-9.6 8.8-24.8 13.4-39.8 13.4-29.4 0-51.6-19.8-51.6-50.8zm50-29.8c-15.8 0-22.6 11-23.6 20.6H640c-.8-9.2-7.2-20.6-24-20.6zm72 54v-50.2h-16V85.4h16V59h25.4v26.4H733v22.2h-19.6V151c0 6.2 3.2 10.8 8.8 10.8 3.8 0 7.4-1.4 8.8-3l5.4 19.4c-3.8 3.4-10.6 6.2-21.2 6.2-17.8 0-27.2-9.2-27.2-26.6zm66.4 24.2V85.4h25.4v13c7-8.4 18.8-15.4 30.8-15.4v24.8c-1.8-.4-4-.6-7-.6-8.4 0-19.6 4.8-23.8 11V182h-25.4zm76.4 15c2.2 1 5.6 1.6 8 1.6 6.6 0 11-1.8 13.4-7l3.6-8.4-39.2-97.8h27.2l25.2 67.2 25.4-67.2h27.2l-45.4 112.4c-7.2 18.2-20 23-36.6 23.4-2.8 0-9.4-.6-12.4-1.6l3.6-22.6z"/>
</svg>
